<svg width="32" height="37" version="1.1" xmlns="http://www.w3.org/2000/svg" desc="Created with imagetracer.js version 1.2.6" ><path fill="rgb(204,138,91)" stroke="rgb(204,138,91)" stroke-width="1" opacity="1" d="M 13.5 3 Q 20 2 21 6.5 L 24 14.5 L 22.5 14 L 16.5 10 L 10.5 9 L 8.5 10 L 9 8.5 L 13.5 3 Z " /><path fill="rgb(116,155,181)" stroke="rgb(116,155,181)" stroke-width="1" opacity="1" d="M 10.5 9 L 16.5 10 L 24 15.5 L 25 19 L 17.5 14 L 11.5 14 L 6.5 18 L 6 15.5 L 8 10 L 10.5 9 Z " /><path fill="rgb(255,255,255)" stroke="rgb(255,255,255)" stroke-width="1" opacity="1" d="M 0 0 L 32 0 L 32 30.5 L 29 28.5 L 26 22.5 Q 28.5 21 25 19.5 L 24 11.5 Q 20.8 9.5 21 5 Q 17.9 5.8 18.5 3 L 13.5 3 L 9 6.5 L 7 10.5 Q 9.5 12 6 13.5 L 6 17.5 L 2 29 L 0 28.5 L 0 0 Z " /><path fill="rgb(255,255,255)" stroke="rgb(255,255,255)" stroke-width="1" opacity="1" d="M 14.5 20 L 16.5 21 L 17.5 20 L 21 23.5 L 25.5 31 Q 27.8 30.3 27 32.5 L 32 35 L 31.5 37 L 0 37 L 2.5 33 L 4 33 L 4 31 Q 6.7 32.1 6 29.5 L 12.5 21 L 14.5 20 Z " /><path fill="rgb(65,144,240)" stroke="rgb(65,144,240)" stroke-width="1" opacity="1" d="M 11.5 14 L 17.5 14 L 25 19 L 32 34 L 29.5 34 L 24 28.5 L 19.5 21 L 12.5 20 L 2.5 33 L 0.5 34 L 0 30.5 L 6 18.5 L 9.5 15 L 11.5 14 Z " /></svg>