<svg xmlns:xlink="http://www.w3.org/1999/xlink" xmlns="http://www.w3.org/2000/svg" width="48" height="48" fill="none" viewBox="0 0 48 48" class="ltzUgB"><rect width="48" height="48" fill="#000" rx="24"></rect><path fill="#FFFFFF" d="M37.999 18.357v-4.168l-5.065 2.633v-.157c0-1.661-1.203-2.665-2.944-2.665H13.944C12.108 14 11 15.002 11 16.665v4.2l7.09 3.635L11 28.167v4.2C11 33.997 12.108 35 13.944 35h16.048c1.74 0 2.943-1.002 2.943-2.633v-.219L38 34.813V30.58L26.226 24.5zM22.14 26.568l8.704 4.514h-17.44zm8.642-8.65L22.142 22.4l-8.736-4.482z"></path></svg>