<svg viewBox="0 0 16 16" xmlns="http://www.w3.org/2000/svg">
  <g fill="#2B2B2B">
    <rect x="5" y="2" width="6" height="1" />
    <rect x="3" y="3" width="2" height="1" /><rect x="11" y="3" width="2" height="1" />
    <rect x="2" y="4" width="1" height="1" /><rect x="13" y="4" width="1" height="1" />
    <rect x="1" y="5" width="1" height="1" /><rect x="14" y="5" width="1" height="1" />
    <rect x="0" y="6" width="1" height="1" /><rect x="15" y="6" width="1" height="1" />
    <rect x="0" y="7" width="1" height="1" /><rect x="15" y="7" width="1" height="1" />
    <rect x="0" y="8" width="1" height="1" /><rect x="15" y="8" width="1" height="1" />
    <rect x="0" y="9" width="1" height="1" /><rect x="15" y="9" width="1" height="1" />
    <rect x="0" y="10" width="1" height="1" /><rect x="15" y="10" width="1" height="1" />
    <rect x="0" y="11" width="1" height="1" /><rect x="15" y="11" width="1" height="1" />
    <rect x="0" y="12" width="1" height="1" /><rect x="15" y="12" width="1" height="1" />
    <rect x="1" y="13" width="1" height="1" /><rect x="14" y="13" width="1" height="1" />
    <rect x="2" y="14" width="12" height="1" />
  </g>
  <g fill="#00CCAA">
    <rect x="5" y="3" width="6" height="1" />
    <rect x="3" y="4" width="10" height="1" />
    <rect x="2" y="5" width="12" height="1" />
    <rect x="1" y="6" width="14" height="1" />
    <rect x="1" y="7" width="14" height="1" />
    <rect x="1" y="8" width="14" height="1" />
    <rect x="1" y="9" width="14" height="1" />
    <rect x="1" y="10" width="14" height="1" />
    <rect x="1" y="11" width="14" height="1" />
    <rect x="1" y="12" width="14" height="1" />
    <rect x="2" y="13" width="12" height="1" />
  </g>
  <g fill="#80FFE5">
    <rect x="5" y="3" width="3" height="1" />
    <rect x="3" y="4" width="2" height="1" />
    <rect x="2" y="5" width="1" height="1" />
    <rect x="1" y="6" width="1" height="1" />
  </g>
  <g fill="#009988">
    <rect x="12" y="11" width="2" height="1" />
    <rect x="11" y="12" width="3" height="1" />
    <rect x="8" y="13" width="5" height="1" />
  </g>
  <!-- Happy ^ ^ Eyes -->
  <g fill="#2B2B2B">
    <rect x="4" y="7" width="1" height="1" />
    <rect x="3" y="8" width="1" height="1" /><rect x="5" y="8" width="1" height="1" />
    <rect x="9" y="7" width="1" height="1" />
    <rect x="8" y="8" width="1" height="1" /><rect x="10" y="8" width="1" height="1" />
  </g>
  <!-- Blush (y=10) -->
  <g fill="#FF85A2">
    <rect x="2" y="10" width="2" height="1" />
    <rect x="10" y="10" width="2" height="1" />
  </g>
</svg>
